<svg width="21" height="21" viewBox="0 0 21 21" fill="none" xmlns="http://www.w3.org/2000/svg">
<g clip-path="url(#clip0_10906_570)">
<path d="M16.8278 8.36823H9.3278C8.40733 8.36823 7.66113 9.11442 7.66113 10.0349V17.5349C7.66113 18.4554 8.40733 19.2016 9.3278 19.2016H16.8278C17.7483 19.2016 18.4945 18.4554 18.4945 17.5349V10.0349C18.4945 9.11442 17.7483 8.36823 16.8278 8.36823Z" stroke="#3485FF" stroke-width="2" stroke-linecap="round" stroke-linejoin="round"/>
<path d="M4.32788 13.3682H3.49455C3.05252 13.3682 2.6286 13.1926 2.31604 12.8801C2.00348 12.5675 1.82788 12.1436 1.82788 11.7015V4.20155C1.82788 3.75952 2.00348 3.3356 2.31604 3.02304C2.6286 2.71048 3.05252 2.53488 3.49455 2.53488H10.9945C11.4366 2.53488 11.8605 2.71048 12.1731 3.02304C12.4856 3.3356 12.6612 3.75952 12.6612 4.20155V5.03488" stroke="#3485FF" stroke-width="2" stroke-linecap="round" stroke-linejoin="round"/>
</g>
<defs>
<clipPath id="clip0_10906_570">
<rect width="20" height="20" fill="white" transform="translate(0.161133 0.868225)"/>
</clipPath>
</defs>
</svg>
