<svg width="21" height="21" viewBox="0 0 21 21" fill="none" xmlns="http://www.w3.org/2000/svg">
<g clip-path="url(#clip0_10906_562)">
<path d="M14.3277 18.3682V16.7016C14.3277 15.8175 13.9765 14.9697 13.3514 14.3445C12.7263 13.7194 11.8784 13.3682 10.9944 13.3682H4.32772C3.44366 13.3682 2.59582 13.7194 1.9707 14.3445C1.34557 14.9697 0.994385 15.8175 0.994385 16.7016V18.3682" stroke="#FAFAFA" stroke-width="2" stroke-linecap="round" stroke-linejoin="round"/>
<path d="M7.66121 10.0349C9.50216 10.0349 10.9945 8.54251 10.9945 6.70156C10.9945 4.86061 9.50216 3.36823 7.66121 3.36823C5.82027 3.36823 4.32788 4.86061 4.32788 6.70156C4.32788 8.54251 5.82027 10.0349 7.66121 10.0349Z" stroke="#FAFAFA" stroke-width="2" stroke-linecap="round" stroke-linejoin="round"/>
<path d="M19.3279 18.3682V16.7016C19.3273 15.963 19.0815 15.2455 18.629 14.6618C18.1765 14.0781 17.543 13.6612 16.8279 13.4766" stroke="#FAFAFA" stroke-width="2" stroke-linecap="round" stroke-linejoin="round"/>
<path d="M13.4944 3.47656C14.2114 3.66015 14.8469 4.07715 15.3007 4.66182C15.7546 5.2465 16.0009 5.96559 16.0009 6.70573C16.0009 7.44587 15.7546 8.16496 15.3007 8.74964C14.8469 9.33431 14.2114 9.75131 13.4944 9.9349" stroke="#FAFAFA" stroke-width="2" stroke-linecap="round" stroke-linejoin="round"/>
</g>
<defs>
<clipPath id="clip0_10906_562">
<rect width="20" height="20" fill="white" transform="translate(0.161133 0.868225)"/>
</clipPath>
</defs>
</svg>
